<svg width="741" height="101" viewBox="0 0 741 101" fill="none" xmlns="http://www.w3.org/2000/svg">
<path d="M183.114 27.5761C186.194 28.6541 188.607 30.3481 190.352 32.6581C192.097 34.9168 192.97 37.6631 192.97 40.8971C192.97 45.6198 191.071 49.2641 187.272 51.8311C183.473 54.3981 177.981 55.6811 170.794 55.6811H141.688V1.78112H169.254C176.133 1.78112 181.369 3.06443 184.962 5.63113C188.555 8.14643 190.352 11.5601 190.352 15.8721C190.352 18.4388 189.71 20.7488 188.427 22.8021C187.195 24.8041 185.424 26.3954 183.114 27.5761ZM156.78 12.7921V23.1871H167.252C172.385 23.1871 174.952 21.4418 174.952 17.9511C174.952 14.5118 172.385 12.7921 167.252 12.7921H156.78ZM169.562 44.6701C174.901 44.6701 177.57 42.8478 177.57 39.2031C177.57 35.5584 174.901 33.7361 169.562 33.7361H156.78V44.6701H169.562ZM230.204 41.3591H221.888V55.6811H206.642V1.78112H231.282C236.158 1.78112 240.393 2.60242 243.987 4.24512C247.58 5.83642 250.352 8.14643 252.303 11.1751C254.253 14.1524 255.229 17.6688 255.229 21.7241C255.229 25.6254 254.305 29.0391 252.457 31.9651C250.66 34.8398 248.068 37.0984 244.68 38.7411L256.307 55.6811H239.983L230.204 41.3591ZM239.829 21.7241C239.829 19.2088 239.033 17.2581 237.442 15.8721C235.85 14.4861 233.489 13.7931 230.358 13.7931H221.888V29.5781H230.358C233.489 29.5781 235.85 28.9108 237.442 27.5761C239.033 26.1901 239.829 24.2394 239.829 21.7241ZM305.528 45.2091H282.736L278.501 55.6811H262.947L286.74 1.78112H301.755L325.625 55.6811H309.763L305.528 45.2091ZM301.062 33.9671L294.132 16.7191L287.202 33.9671H301.062ZM335.722 1.78112H350.968V55.6811H335.722V1.78112ZM418.872 1.78112V55.6811H406.321L382.528 26.9601V55.6811H367.59V1.78112H380.141L403.934 30.5021V1.78112H418.872ZM454.343 56.7591C449.98 56.7591 445.745 56.2201 441.638 55.1421C437.531 54.0641 434.195 52.6271 431.628 50.8301L436.633 39.5881C439.046 41.1794 441.843 42.4628 445.026 43.4381C448.209 44.4134 451.34 44.9011 454.42 44.9011C460.272 44.9011 463.198 43.4381 463.198 40.5121C463.198 38.9721 462.351 37.8428 460.657 37.1241C459.014 36.3541 456.345 35.5584 452.649 34.7371C448.594 33.8644 445.206 32.9404 442.485 31.9651C439.764 30.9384 437.429 29.3214 435.478 27.1141C433.527 24.9068 432.552 21.9294 432.552 18.1821C432.552 14.8968 433.45 11.9451 435.247 9.32713C437.044 6.65783 439.713 4.55313 443.255 3.01313C446.848 1.47313 451.237 0.703125 456.422 0.703125C459.964 0.703125 463.455 1.11383 466.894 1.93513C470.333 2.70513 473.362 3.86013 475.98 5.40013L471.283 16.7191C466.15 13.9471 461.17 12.5611 456.345 12.5611C453.316 12.5611 451.109 13.0231 449.723 13.9471C448.337 14.8198 447.644 15.9748 447.644 17.4121C447.644 18.8494 448.465 19.9274 450.108 20.6461C451.751 21.3648 454.394 22.1091 458.039 22.8791C462.146 23.7518 465.534 24.7014 468.203 25.7281C470.924 26.7034 473.259 28.2948 475.21 30.5021C477.212 32.6581 478.213 35.6098 478.213 39.3571C478.213 42.5911 477.315 45.5171 475.518 48.1351C473.721 50.7531 471.026 52.8581 467.433 54.4491C463.84 55.9891 459.476 56.7591 454.343 56.7591ZM501.751 13.8701H485.196V1.78112H533.475V13.8701H516.997V55.6811H501.751V13.8701ZM571.359 56.7591C565.661 56.7591 560.528 55.5531 555.959 53.1401C551.442 50.7271 547.874 47.3908 545.256 43.1301C542.69 38.8694 541.406 34.0698 541.406 28.7311C541.406 23.3924 542.69 18.5928 545.256 14.3321C547.874 10.0714 551.442 6.73482 555.959 4.32212C560.528 1.90942 565.661 0.703125 571.359 0.703125C577.057 0.703125 582.165 1.90942 586.682 4.32212C591.251 6.73482 594.819 10.0714 597.385 14.3321C600.003 18.5928 601.312 23.3924 601.312 28.7311C601.312 34.0698 600.003 38.8694 597.385 43.1301C594.819 47.3908 591.251 50.7271 586.682 53.1401C582.165 55.5531 577.057 56.7591 571.359 56.7591ZM571.359 44.1311C574.08 44.1311 576.544 43.4894 578.751 42.2061C580.959 40.9228 582.704 39.1261 583.987 36.8161C585.271 34.4548 585.912 31.7598 585.912 28.7311C585.912 25.7024 585.271 23.0331 583.987 20.7231C582.704 18.3618 580.959 16.5394 578.751 15.2561C576.544 13.9728 574.08 13.3311 571.359 13.3311C568.639 13.3311 566.175 13.9728 563.967 15.2561C561.76 16.5394 560.015 18.3618 558.731 20.7231C557.448 23.0331 556.806 25.7024 556.806 28.7311C556.806 31.7598 557.448 34.4548 558.731 36.8161C560.015 39.1261 561.76 40.9228 563.967 42.2061C566.175 43.4894 568.639 44.1311 571.359 44.1311ZM638.635 41.3591H630.319V55.6811H615.073V1.78112H639.713C644.589 1.78112 648.824 2.60242 652.418 4.24512C656.011 5.83642 658.783 8.14643 660.734 11.1751C662.684 14.1524 663.66 17.6688 663.66 21.7241C663.66 25.6254 662.736 29.0391 660.888 31.9651C659.091 34.8398 656.499 37.0984 653.111 38.7411L664.738 55.6811H648.414L638.635 41.3591ZM648.26 21.7241C648.26 19.2088 647.464 17.2581 645.873 15.8721C644.281 14.4861 641.92 13.7931 638.789 13.7931H630.319V29.5781H638.789C641.92 29.5781 644.281 28.9108 645.873 27.5761C647.464 26.1901 648.26 24.2394 648.26 21.7241ZM726.51 55.6811L726.356 27.1141L712.496 50.3681H705.72L691.937 27.8841V55.6811H677.846V1.78112H690.397L709.339 32.8891L727.819 1.78112H740.37L740.524 55.6811H726.51Z" fill="#0A55EE"/>
<path d="M162.318 81.1502H166.623V90.9152C165.363 91.9182 163.893 92.6882 162.213 93.2252C160.533 93.7622 158.806 94.0302 157.033 94.0302C154.536 94.0302 152.285 93.4932 150.278 92.4202C148.271 91.3232 146.696 89.8182 145.553 87.9052C144.41 85.9922 143.838 83.8332 143.838 81.4302C143.838 79.0272 144.41 76.8682 145.553 74.9552C146.696 73.0422 148.271 71.5482 150.278 70.4752C152.308 69.3782 154.583 68.8302 157.103 68.8302C159.156 68.8302 161.023 69.1682 162.703 69.8452C164.383 70.5222 165.795 71.5132 166.938 72.8202L164.068 75.6202C162.201 73.7532 159.95 72.8202 157.313 72.8202C155.586 72.8202 154.046 73.1822 152.693 73.9052C151.363 74.6282 150.313 75.6432 149.543 76.9502C148.796 78.2572 148.423 79.7502 148.423 81.4302C148.423 83.0632 148.796 84.5332 149.543 85.8402C150.313 87.1472 151.363 88.1732 152.693 88.9202C154.046 89.6672 155.575 90.0402 157.278 90.0402C159.191 90.0402 160.871 89.6202 162.318 88.7802V81.1502ZM191.454 67.7102H195.829V93.6802H191.454V67.7102ZM229.221 93.9251C227.331 93.9251 225.628 93.5172 224.111 92.7002C222.595 91.8832 221.405 90.7522 220.541 89.3052C219.701 87.8352 219.281 86.1782 219.281 84.3352C219.281 82.4922 219.701 80.8472 220.541 79.4002C221.405 77.9532 222.595 76.8221 224.111 76.0051C225.628 75.1881 227.331 74.7802 229.221 74.7802C231.135 74.7802 232.85 75.1881 234.366 76.0051C235.883 76.8221 237.061 77.9532 237.901 79.4002C238.765 80.8472 239.196 82.4922 239.196 84.3352C239.196 86.1782 238.765 87.8352 237.901 89.3052C237.061 90.7522 235.883 91.8832 234.366 92.7002C232.85 93.5172 231.135 93.9251 229.221 93.9251ZM229.221 90.1802C230.831 90.1802 232.161 89.6432 233.211 88.5702C234.261 87.4972 234.786 86.0852 234.786 84.3352C234.786 82.5852 234.261 81.1732 233.211 80.1002C232.161 79.0272 230.831 78.4902 229.221 78.4902C227.611 78.4902 226.281 79.0272 225.231 80.1002C224.205 81.1732 223.691 82.5852 223.691 84.3352C223.691 86.0852 224.205 87.4972 225.231 88.5702C226.281 89.6432 227.611 90.1802 229.221 90.1802ZM272.99 74.7802C274.81 74.7802 276.432 75.1772 277.855 75.9702C279.302 76.7632 280.433 77.8831 281.25 79.3301C282.067 80.7771 282.475 82.4452 282.475 84.3352C282.475 86.2252 282.067 87.9052 281.25 89.3752C280.433 90.8222 279.302 91.9421 277.855 92.7351C276.432 93.5281 274.81 93.9251 272.99 93.9251C271.707 93.9251 270.528 93.7032 269.455 93.2602C268.405 92.8172 267.518 92.1522 266.795 91.2652V93.6802H262.63V67.7102H267.005V77.2652C267.752 76.4482 268.627 75.8302 269.63 75.4102C270.657 74.9902 271.777 74.7802 272.99 74.7802ZM272.5 90.1802C274.11 90.1802 275.428 89.6432 276.455 88.5702C277.505 87.4972 278.03 86.0852 278.03 84.3352C278.03 82.5852 277.505 81.1732 276.455 80.1002C275.428 79.0272 274.11 78.4902 272.5 78.4902C271.45 78.4902 270.505 78.7352 269.665 79.2252C268.825 79.6922 268.16 80.3681 267.67 81.2551C267.18 82.1421 266.935 83.1682 266.935 84.3352C266.935 85.5022 267.18 86.5282 267.67 87.4152C268.16 88.3022 268.825 88.9902 269.665 89.4802C270.505 89.9472 271.45 90.1802 272.5 90.1802ZM312.775 74.7802C315.528 74.7802 317.628 75.4452 319.075 76.7752C320.545 78.0822 321.28 80.0652 321.28 82.7252V93.6802H317.15V91.4052C316.613 92.2222 315.843 92.8522 314.84 93.2952C313.86 93.7152 312.67 93.9251 311.27 93.9251C309.87 93.9251 308.645 93.6922 307.595 93.2252C306.545 92.7352 305.728 92.0702 305.145 91.2302C304.585 90.3672 304.305 89.3982 304.305 88.3252C304.305 86.6452 304.923 85.3031 306.16 84.3001C307.42 83.2731 309.391 82.7602 312.075 82.7602H316.905V82.4802C316.905 81.1732 316.508 80.1701 315.715 79.4701C314.945 78.7701 313.79 78.4202 312.25 78.4202C311.2 78.4202 310.161 78.5831 309.135 78.9101C308.131 79.2371 307.28 79.6922 306.58 80.2752L304.865 77.0902C305.845 76.3432 307.023 75.7722 308.4 75.3752C309.776 74.9782 311.235 74.7802 312.775 74.7802ZM312.18 90.7402C313.276 90.7402 314.245 90.4951 315.085 90.0051C315.948 89.4921 316.555 88.7682 316.905 87.8352V85.6652H312.39C309.87 85.6652 308.61 86.4932 308.61 88.1502C308.61 88.9432 308.925 89.5732 309.555 90.0402C310.185 90.5072 311.06 90.7402 312.18 90.7402ZM346.145 67.7102H350.52V93.6802H346.145V67.7102ZM423.23 89.8652V93.6802H404.855V69.1802H422.74V72.9952H409.405V79.3652H421.235V83.1101H409.405V89.8652H423.23ZM465.266 67.7102V93.6802H461.066V91.2652C460.343 92.1522 459.444 92.8172 458.371 93.2602C457.321 93.7032 456.154 93.9251 454.871 93.9251C453.074 93.9251 451.453 93.5281 450.006 92.7351C448.583 91.9421 447.463 90.8222 446.646 89.3752C445.829 87.9052 445.421 86.2252 445.421 84.3352C445.421 82.4452 445.829 80.7771 446.646 79.3301C447.463 77.8831 448.583 76.7632 450.006 75.9702C451.453 75.1772 453.074 74.7802 454.871 74.7802C456.108 74.7802 457.239 74.9902 458.266 75.4102C459.293 75.8302 460.168 76.4601 460.891 77.3001V67.7102H465.266ZM455.396 90.1802C456.446 90.1802 457.391 89.9472 458.231 89.4802C459.071 88.9902 459.736 88.3022 460.226 87.4152C460.716 86.5282 460.961 85.5022 460.961 84.3352C460.961 83.1682 460.716 82.1421 460.226 81.2551C459.736 80.3681 459.071 79.6922 458.231 79.2252C457.391 78.7352 456.446 78.4902 455.396 78.4902C454.346 78.4902 453.401 78.7352 452.561 79.2252C451.721 79.6922 451.056 80.3681 450.566 81.2551C450.076 82.1421 449.831 83.1682 449.831 84.3352C449.831 85.5022 450.076 86.5282 450.566 87.4152C451.056 88.3022 451.721 88.9902 452.561 89.4802C453.401 89.9472 454.346 90.1802 455.396 90.1802ZM508.334 74.9902V93.6802H504.169V91.3001C503.469 92.1401 502.594 92.7932 501.544 93.2602C500.494 93.7032 499.363 93.9251 498.149 93.9251C495.653 93.9251 493.681 93.2371 492.234 91.8601C490.811 90.4601 490.099 88.3952 490.099 85.6652V74.9902H494.474V85.0702C494.474 86.7502 494.848 88.0102 495.594 88.8502C496.364 89.6672 497.449 90.0752 498.849 90.0752C500.413 90.0752 501.649 89.5972 502.559 88.6402C503.493 87.6602 503.959 86.2601 503.959 84.4401V74.9902H508.334ZM541.888 93.9251C539.951 93.9251 538.213 93.5172 536.673 92.7002C535.133 91.8832 533.931 90.7522 533.068 89.3052C532.204 87.8352 531.773 86.1782 531.773 84.3352C531.773 82.4922 532.204 80.8472 533.068 79.4002C533.931 77.9532 535.121 76.8221 536.638 76.0051C538.178 75.1881 539.928 74.7802 541.888 74.7802C543.731 74.7802 545.341 75.1532 546.718 75.9002C548.118 76.6472 549.168 77.7202 549.868 79.1202L546.508 81.0801C545.971 80.2171 545.294 79.5752 544.478 79.1552C543.684 78.7122 542.809 78.4902 541.853 78.4902C540.219 78.4902 538.866 79.0272 537.793 80.1002C536.719 81.1502 536.183 82.5622 536.183 84.3352C536.183 86.1082 536.708 87.5322 537.758 88.6052C538.831 89.6552 540.196 90.1802 541.853 90.1802C542.809 90.1802 543.684 89.9701 544.478 89.5501C545.294 89.1071 545.971 88.4532 546.508 87.5902L549.868 89.5501C549.144 90.9501 548.083 92.0352 546.683 92.8052C545.306 93.5522 543.708 93.9251 541.888 93.9251ZM580.039 74.7802C582.793 74.7802 584.893 75.4452 586.339 76.7752C587.809 78.0822 588.544 80.0652 588.544 82.7252V93.6802H584.414V91.4052C583.878 92.2222 583.108 92.8522 582.104 93.2952C581.124 93.7152 579.934 93.9251 578.534 93.9251C577.134 93.9251 575.909 93.6922 574.859 93.2252C573.809 92.7352 572.993 92.0702 572.409 91.2302C571.849 90.3672 571.569 89.3982 571.569 88.3252C571.569 86.6452 572.188 85.3031 573.424 84.3001C574.684 83.2731 576.656 82.7602 579.339 82.7602H584.169V82.4802C584.169 81.1732 583.773 80.1701 582.979 79.4701C582.209 78.7701 581.054 78.4202 579.514 78.4202C578.464 78.4202 577.426 78.5831 576.399 78.9101C575.396 79.2371 574.544 79.6922 573.844 80.2752L572.129 77.0902C573.109 76.3432 574.288 75.7722 575.664 75.3752C577.041 74.9782 578.499 74.7802 580.039 74.7802ZM579.444 90.7402C580.541 90.7402 581.509 90.4951 582.349 90.0051C583.213 89.4921 583.819 88.7682 584.169 87.8352V85.6652H579.654C577.134 85.6652 575.874 86.4932 575.874 88.1502C575.874 88.9432 576.189 89.5732 576.819 90.0402C577.449 90.5072 578.324 90.7402 579.444 90.7402ZM624.644 92.6652C624.131 93.0852 623.501 93.4001 622.754 93.6101C622.031 93.8201 621.261 93.9251 620.444 93.9251C618.391 93.9251 616.804 93.3881 615.684 92.3151C614.564 91.2421 614.004 89.6782 614.004 87.6252V78.6301H610.924V75.1301H614.004V70.8602H618.379V75.1301H623.384V78.6301H618.379V87.5201C618.379 88.4301 618.601 89.1302 619.044 89.6202C619.488 90.0872 620.129 90.3202 620.969 90.3202C621.949 90.3202 622.766 90.0631 623.419 89.5501L624.644 92.6652ZM647.493 74.9902H651.868V93.6802H647.493V74.9902ZM649.698 71.9102C648.905 71.9102 648.24 71.6652 647.703 71.1752C647.167 70.6622 646.898 70.0322 646.898 69.2852C646.898 68.5382 647.167 67.9202 647.703 67.4302C648.24 66.9172 648.905 66.6602 649.698 66.6602C650.492 66.6602 651.157 66.9051 651.693 67.3951C652.23 67.8621 652.498 68.4572 652.498 69.1802C652.498 69.9502 652.23 70.6032 651.693 71.1402C651.18 71.6532 650.515 71.9102 649.698 71.9102ZM685.26 93.9251C683.37 93.9251 681.667 93.5172 680.15 92.7002C678.634 91.8832 677.444 90.7522 676.58 89.3052C675.74 87.8352 675.32 86.1782 675.32 84.3352C675.32 82.4922 675.74 80.8472 676.58 79.4002C677.444 77.9532 678.634 76.8221 680.15 76.0051C681.667 75.1881 683.37 74.7802 685.26 74.7802C687.174 74.7802 688.889 75.1881 690.405 76.0051C691.922 76.8221 693.1 77.9532 693.94 79.4002C694.804 80.8472 695.235 82.4922 695.235 84.3352C695.235 86.1782 694.804 87.8352 693.94 89.3052C693.1 90.7522 691.922 91.8832 690.405 92.7002C688.889 93.5172 687.174 93.9251 685.26 93.9251ZM685.26 90.1802C686.87 90.1802 688.2 89.6432 689.25 88.5702C690.3 87.4972 690.825 86.0852 690.825 84.3352C690.825 82.5852 690.3 81.1732 689.25 80.1002C688.2 79.0272 686.87 78.4902 685.26 78.4902C683.65 78.4902 682.32 79.0272 681.27 80.1002C680.244 81.1732 679.73 82.5852 679.73 84.3352C679.73 86.0852 680.244 87.4972 681.27 88.5702C682.32 89.6432 683.65 90.1802 685.26 90.1802ZM729.274 74.7802C731.631 74.7802 733.521 75.4681 734.944 76.8451C736.367 78.2221 737.079 80.2631 737.079 82.9701V93.6802H732.704V83.5302C732.704 81.8972 732.319 80.6722 731.549 79.8552C730.779 79.0152 729.682 78.5951 728.259 78.5951C726.649 78.5951 725.377 79.0851 724.444 80.0651C723.511 81.0221 723.044 82.4102 723.044 84.2302V93.6802H718.669V74.9902H722.834V77.4052C723.557 76.5422 724.467 75.8882 725.564 75.4452C726.661 75.0022 727.897 74.7802 729.274 74.7802Z" fill="#2DA866"/>
<path d="M56.588 23.3663C29.0326 -0.74741 2.50085 2.96129 2.50085 2.96129L2.50828 22.0089C2.50085 42.1813 2.50828 66.2313 2.50828 66.2313V81.8743C38.5713 83.9143 56.5954 97.5243 56.5954 97.5243H64.7545C90.945 81.8743 118.834 82.5563 118.834 82.5563V64.1833V23.3663V2.74609C73.9371 6.95919 65.0956 23.3663 65.0956 23.3663H56.588Z" stroke="#2DA866" stroke-width="5"/>
<path d="M36.8563 11.4609C36.8563 11.4609 50.2075 12.9444 50.8677 44.2454C51.5278 75.5467 45.2156 83.4607 45.2156 83.4237C44.4767 85.0347 43.4064 86.4717 42.0747 87.6407C40.743 88.8107 39.1797 89.6857 37.4868 90.2107L41.1955 89.7947C41.1955 89.7947 46.3876 88.8307 51.5204 81.2207C51.5204 81.2207 56.5493 74.0407 58.5743 57.7377C60.5992 41.4343 54.6579 26.9631 54.6579 26.9631C54.6579 26.9631 49.4658 13.1372 39.8232 11.4609H36.8563Z" fill="#2DA866"/>
<path d="M83.787 11.4609C83.787 11.4609 71.0366 12.9444 70.3987 44.2454C69.7608 75.5467 75.8282 83.4607 75.7837 83.4237C76.4726 85.0137 77.4894 86.4397 78.7676 87.6097C80.0458 88.7787 81.5566 89.6657 83.201 90.2107L79.6555 89.7947C79.6555 89.7947 74.7156 88.8307 69.7905 81.2207C69.7905 81.2207 64.9915 74.0407 63.0556 57.7377C61.1196 41.4343 66.7642 26.9631 66.7642 26.9631C66.7642 26.9631 71.7116 13.1372 80.9313 11.4609H83.787Z" fill="#2DA866"/>
<path d="M77.9509 87.9518C77.9509 87.9518 99.0317 82.9648 89.3844 69.4758C88.3125 68.2498 86.7958 66.7308 85.0107 65.3668C80.7231 62.0888 72.2342 57.2128 63.6591 52.9208L50.2604 44.95L30.4305 30.2344" stroke="#2DA866" stroke-width="2"/>
<path d="M39.3055 20.9398C38.9197 21.0608 38.4219 21.2017 38.2114 21.2685C37.5571 21.4491 35.5453 22.044 32.93 22.8173C32.79 22.8591 32.1958 23.0303 31.6182 23.2035C30.5169 23.5229 30.2888 23.5959 29.65 23.7869C29.4312 23.8526 28.8277 24.0311 28.2946 24.1845C27.7699 24.339 27.1757 24.5102 26.9828 24.5707C26.791 24.6229 26.5639 24.6876 26.4685 24.7096C26.3564 24.7295 26.0978 24.5712 25.6085 24.1653C24.1715 22.9684 22.4719 21.7139 21.8935 21.415C21.2985 21.1142 20.4453 20.9247 20.0221 21.0074C19.3656 21.1372 19.0937 21.7021 19.2664 22.5578C19.4223 23.3439 19.7655 23.7739 21.0953 24.8143C21.7093 25.303 22.3317 25.7926 22.4771 25.9117C23.0964 26.4263 23.5348 26.7669 23.9597 27.0805C24.1986 27.2617 24.393 27.4626 24.3838 27.5373C24.3614 27.7874 24.3864 30.8667 24.4218 32.0847C24.4306 32.4229 24.4342 33.283 24.4406 33.9834C24.4387 34.6827 24.4438 35.8042 24.4532 36.4796C24.4627 37.155 24.4771 38.2693 24.4752 38.9686C24.4826 39.6606 24.4987 40.556 24.5087 40.9533L24.5214 41.6713L25.5208 42.4519C26.0663 42.8815 26.5399 43.2096 26.5679 43.1877C26.6508 43.1305 27.04 41.4086 28.0589 36.629C28.2884 35.5869 28.5365 34.4629 28.62 34.1276C28.7118 33.7934 28.8908 32.9558 29.0349 32.2656C29.1696 31.5826 29.3284 30.9785 29.3698 30.9162C29.4381 30.8403 29.7455 31.0131 30.7178 31.6723C32.9573 33.1957 35.6331 35.0088 36.0289 35.2851C36.4953 35.6039 36.4816 35.5095 36.3862 37.925L36.3177 39.7117L36.9629 40.2211C37.3556 40.5223 37.6454 40.7013 37.7014 40.6576C37.748 40.6212 37.8865 40.318 38.0208 39.9806C38.1561 39.6349 38.3761 39.0805 38.5114 38.7347C38.654 38.3983 38.8782 37.8107 39.0165 37.4401C39.1549 37.0694 39.311 36.6925 39.373 36.599C39.4341 36.5139 40.2609 35.8235 41.2037 35.08C42.1466 34.3366 42.9247 33.6992 42.9308 33.6494C42.941 33.5664 41.7568 32.7125 41.599 32.6931C41.5492 32.6869 41.3055 32.7496 41.0597 32.8289C40.814 32.9081 40.2603 33.0927 39.8299 33.2336C39.3996 33.3744 38.7671 33.583 38.4322 33.7018C38.0973 33.8207 37.7664 33.9063 37.6917 33.8971C37.617 33.8879 37.1069 33.5132 36.5542 33.0743C35.5734 32.2791 35.4362 32.1611 34.6019 31.4767C34.1728 31.1289 32.6247 29.8762 31.7416 29.1774C30.9905 28.5707 30.9874 28.5956 31.5948 28.249C31.8933 28.0835 33.0076 27.4539 34.0772 26.8441C35.1469 26.2342 36.5783 25.4245 37.2583 25.0364C42.2926 22.2097 42.1558 22.294 42.0114 22.1666C41.9345 22.1066 41.494 21.7826 41.0203 21.4545C40.555 21.1275 40.1363 20.8315 40.0906 20.7921C40.0532 20.7538 39.6995 20.8198 39.3055 20.9398Z" fill="#2DA866"/>
</svg>
